<svg width="25" height="25" viewBox="0 0 25 25" fill="none" xmlns="http://www.w3.org/2000/svg">
<path d="M17.45 12.4501C18.2971 11.6037 18.9128 10.554 19.2381 9.40159C19.5634 8.24914 19.5875 7.03248 19.308 5.86807L21.803 4.79807C21.8791 4.76545 21.9621 4.75224 22.0445 4.75961C22.127 4.76698 22.2063 4.79471 22.2754 4.84031C22.3445 4.88591 22.4012 4.94795 22.4404 5.02087C22.4796 5.09378 22.5001 5.17528 22.5 5.25807V19.5001L15.5 22.5001L9.5 19.5001L3.197 22.2011C3.12091 22.2337 3.03792 22.2469 2.95547 22.2395C2.87301 22.2322 2.79368 22.2044 2.72459 22.1588C2.6555 22.1132 2.59881 22.0512 2.55961 21.9783C2.52041 21.9054 2.49993 21.8238 2.5 21.7411V7.50007L5.629 6.15907C5.40884 7.28465 5.46891 8.4471 5.80391 9.54399C6.1389 10.6409 6.73855 11.6385 7.55 12.4491L12.5 17.4001L17.45 12.4501ZM16.036 11.0361L12.5 14.5701L8.964 11.0351C8.26487 10.3358 7.7888 9.44484 7.59598 8.47497C7.40316 7.5051 7.50225 6.49983 7.88073 5.58628C8.25921 4.67272 8.90007 3.89191 9.72229 3.34256C10.5445 2.79321 11.5111 2.5 12.5 2.5C13.4889 2.5 14.4555 2.79321 15.2777 3.34256C16.0999 3.89191 16.7408 4.67272 17.1193 5.58628C17.4977 6.49983 17.5968 7.5051 17.404 8.47497C17.2112 9.44484 16.7351 10.3358 16.036 11.0351V11.0361Z" fill="white"/>
</svg>
