<svg width="25" height="25" viewBox="0 0 25 25" fill="none" xmlns="http://www.w3.org/2000/svg">
<path d="M21.5 14.5V19.5C21.5 20.0304 21.2893 20.5391 20.9142 20.9142C20.5391 21.2893 20.0304 21.5 19.5 21.5H5.5C4.96957 21.5 4.46086 21.2893 4.08579 20.9142C3.71071 20.5391 3.5 20.0304 3.5 19.5V5.5C3.5 4.96957 3.71071 4.46086 4.08579 4.08579C4.46086 3.71071 4.96957 3.5 5.5 3.5H10.5V5.5H5.5V19.5H19.5V14.5H21.5Z" fill="white"/>
<path d="M21.5 7.5H17.5V3.5H15.5V7.5H11.5V9.5H15.5V13.5H17.5V9.5H21.5V7.5Z" fill="white"/>
</svg>
