<svg width="21" height="21" viewBox="0 0 21 21" fill="none" xmlns="http://www.w3.org/2000/svg">
<path opacity="0.5" fill-rule="evenodd" clip-rule="evenodd" d="M12.5 20.5H8.5C4.729 20.5 2.843 20.5 1.672 19.328C0.5 18.157 0.5 16.271 0.5 12.5V8.5C0.5 4.729 0.5 2.843 1.672 1.672C2.843 0.5 4.739 0.5 8.53 0.5C9.136 0.5 9.621 0.5 10.03 0.517C10.017 0.597 10.01 0.678 10.01 0.761L10 3.595C10 4.692 10 5.662 10.105 6.443C10.219 7.29 10.48 8.137 11.172 8.829C11.862 9.519 12.71 9.781 13.557 9.895C14.338 10 15.308 10 16.405 10H20.457C20.5 10.534 20.5 11.19 20.5 12.063V12.5C20.5 16.271 20.5 18.157 19.328 19.328C18.157 20.5 16.271 20.5 12.5 20.5Z" fill="white"/>
<path d="M10.01 0.759883L10 3.59488C10 4.69188 10 5.66088 10.105 6.44288C10.219 7.28988 10.48 8.13688 11.172 8.82788C11.862 9.51888 12.71 9.78088 13.557 9.89488C14.338 9.99988 15.308 9.99988 16.405 9.99988H20.457C20.47 10.1549 20.479 10.3209 20.485 10.4999H20.5C20.5 10.2319 20.5 10.0979 20.49 9.93988C20.413 8.98963 20.0821 8.07752 19.532 7.29888C19.438 7.17088 19.374 7.09488 19.247 6.94188C18.454 5.99388 17.41 4.81188 16.5 3.99988C15.69 3.27588 14.579 2.48488 13.61 1.83788C12.778 1.28288 12.362 1.00488 11.791 0.797883C11.6249 0.738784 11.456 0.687725 11.285 0.644883C10.901 0.549883 10.527 0.516883 10 0.504883L10.01 0.759883Z" fill="white"/>
</svg>
