<svg width="83" height="33" viewBox="0 0 83 33" fill="none" xmlns="http://www.w3.org/2000/svg">
<path d="M13.9664 20.1479L16.719 4.51936H20.7911L18.6299 16.8038H26.4556L25.8641 20.1479H13.9664ZM34.0776 20.4209C32.8188 20.4209 31.7496 20.2541 30.87 19.9205C30.0055 19.5716 29.3458 19.0408 28.8908 18.328C28.4358 17.6152 28.2083 16.7128 28.2083 15.6209C28.2083 15.2417 28.2235 14.8778 28.2538 14.5289C28.2842 14.165 28.3372 13.8085 28.4131 13.4597C28.6254 12.3071 29.0273 11.3213 29.6188 10.5024C30.2254 9.66822 30.9989 9.02367 31.9392 8.56869C32.8946 8.11371 34.0018 7.88622 35.2605 7.88622C36.4738 7.88622 37.4899 8.05304 38.3089 8.38669C39.143 8.70518 39.7724 9.19808 40.1971 9.86538C40.6217 10.5327 40.834 11.3896 40.834 12.436C40.834 12.7242 40.8113 13.0654 40.7658 13.4597C40.7355 13.8389 40.6596 14.3166 40.5383 14.8929H31.9392C31.9088 15.0294 31.8861 15.1811 31.8709 15.3479C31.8558 15.4996 31.8482 15.6436 31.8482 15.7801C31.8482 16.2199 31.924 16.5991 32.0757 16.9176C32.2273 17.2209 32.47 17.4484 32.8036 17.6001C33.1373 17.7517 33.5619 17.8275 34.0776 17.8275C34.4719 17.8275 34.8207 17.7896 35.124 17.7138C35.4274 17.6228 35.6852 17.4939 35.8975 17.3271C36.1098 17.1451 36.2842 16.9328 36.4207 16.6901C36.5724 16.4474 36.671 16.1744 36.7165 15.8711H40.3563C40.235 16.5991 39.9999 17.2512 39.6511 17.8275C39.3174 18.3887 38.8776 18.8664 38.3317 19.2607C37.8008 19.6399 37.179 19.928 36.4662 20.1252C35.7534 20.3224 34.9572 20.4209 34.0776 20.4209ZM32.3032 12.8228H37.0805C37.1108 12.7166 37.126 12.6104 37.126 12.5043C37.1411 12.3829 37.1487 12.2844 37.1487 12.2085C37.1487 11.8142 37.0729 11.4881 36.9212 11.2303C36.7847 10.9725 36.5724 10.7829 36.2842 10.6616C36.0112 10.5251 35.6852 10.4569 35.306 10.4569C34.7752 10.4569 34.3127 10.5554 33.9183 10.7526C33.524 10.9346 33.198 11.2 32.9401 11.5488C32.6823 11.8976 32.47 12.3223 32.3032 12.8228ZM46.3425 20.4209C45.478 20.4209 44.7273 20.2541 44.0904 19.9205C43.4534 19.5716 42.9605 19.0636 42.6117 18.3963C42.278 17.729 42.1112 16.91 42.1112 15.9394C42.1112 15.6361 42.1264 15.3252 42.1567 15.0067C42.187 14.673 42.2325 14.3242 42.2932 13.9602C42.5358 12.5801 42.915 11.4426 43.4306 10.5479C43.9614 9.65306 44.6136 8.98575 45.3871 8.54594C46.1605 8.10612 47.0326 7.88622 48.0032 7.88622C48.5188 7.88622 48.989 7.94688 49.4136 8.06821C49.8534 8.18954 50.2402 8.37911 50.5738 8.63693C50.9075 8.87959 51.1881 9.20566 51.4155 9.61514H51.5748L52.462 8.1592H55.4649L54.9189 11.0938C54.8279 11.6398 54.7293 12.1934 54.6232 12.7545C54.517 13.3157 54.4184 13.8465 54.3274 14.3469C54.2364 14.8474 54.153 15.3024 54.0772 15.7119C54.0014 16.1214 53.9407 16.455 53.8952 16.7128C53.8649 16.9707 53.8497 17.1375 53.8497 17.2133C53.8497 17.4256 53.9028 17.5849 54.0089 17.6911C54.1303 17.782 54.2819 17.8275 54.4639 17.8275H55.1691L54.7824 20.0115C54.5246 20.1176 54.2213 20.2086 53.8724 20.2844C53.5236 20.3754 53.1596 20.4209 52.7805 20.4209C52.3255 20.4209 51.9236 20.3527 51.5748 20.2162C51.2411 20.0949 50.9682 19.8977 50.7558 19.6247C50.6497 19.5034 50.5587 19.3517 50.4828 19.1697C50.4222 18.9877 50.3767 18.7982 50.3463 18.601H50.1871C49.7018 19.1925 49.1255 19.6475 48.4582 19.966C47.7909 20.2693 47.0856 20.4209 46.3425 20.4209ZM47.7985 17.5091C48.1776 17.5091 48.5264 17.4332 48.8449 17.2816C49.1634 17.1299 49.444 16.9176 49.6866 16.6446C49.9293 16.3716 50.134 16.0455 50.3008 15.6664C50.4677 15.2872 50.589 14.8702 50.6648 14.4152C50.7255 14.1119 50.7634 13.8692 50.7786 13.6872C50.8089 13.4901 50.8241 13.3308 50.8241 13.2095C50.8392 13.073 50.8468 12.9593 50.8468 12.8683C50.8468 12.4436 50.7786 12.0796 50.6421 11.7763C50.5208 11.4578 50.3236 11.2152 50.0506 11.0483C49.7776 10.8815 49.4212 10.7981 48.9814 10.7981C48.4203 10.7981 47.9501 10.9118 47.571 11.1393C47.1918 11.3517 46.8885 11.6853 46.661 12.1403C46.4335 12.5801 46.2591 13.1185 46.1378 13.7555C46.0619 14.1498 46.0013 14.4607 45.9558 14.6882C45.9254 14.9157 45.9027 15.1052 45.8875 15.2569C45.8875 15.3934 45.8875 15.5071 45.8875 15.5981C45.8875 16.2199 46.0316 16.6977 46.3198 17.0313C46.6231 17.3498 47.116 17.5091 47.7985 17.5091ZM56.2584 20.1479L59.1476 3.65489H62.8784L61.2405 12.982L66.1543 8.1592H70.4993L65.4035 12.891L68.5429 20.1479H64.5163L62.6054 15.3252L60.5125 17.0996L59.9893 20.1479H56.2584ZM74.8234 20.4209C74.0651 20.4209 73.3523 20.3527 72.685 20.2162C72.0329 20.0797 71.4566 19.8825 70.9561 19.6247C70.4708 19.3517 70.084 19.0181 69.7959 18.6238C69.5229 18.2143 69.3864 17.7441 69.3864 17.2133C69.3864 17.0617 69.4016 16.9024 69.4319 16.7356C69.4622 16.5536 69.4926 16.4095 69.5229 16.3034H73.049C73.0338 16.3792 73.0187 16.4626 73.0035 16.5536C72.9883 16.6294 72.9807 16.6901 72.9807 16.7356C72.9807 17.0086 73.0642 17.2437 73.231 17.4408C73.413 17.6228 73.6556 17.7593 73.959 17.8503C74.2774 17.9261 74.6187 17.964 74.9827 17.964C75.2253 17.964 75.4831 17.9489 75.7561 17.9185C76.0291 17.873 76.2794 17.8048 76.5069 17.7138C76.7495 17.6228 76.9391 17.5091 77.0756 17.3726C77.2121 17.2209 77.2803 17.0313 77.2803 16.8038C77.2803 16.5915 77.2045 16.4171 77.0528 16.2806C76.9163 16.1441 76.7192 16.0228 76.4614 15.9166C76.2187 15.8105 75.9305 15.7195 75.5969 15.6436C75.2784 15.5678 74.9372 15.4844 74.5732 15.3934C74.103 15.2721 73.6253 15.1432 73.14 15.0067C72.6698 14.855 72.2376 14.6654 71.8433 14.4379C71.449 14.1953 71.1305 13.8995 70.8878 13.5507C70.6452 13.1867 70.5239 12.7318 70.5239 12.1858C70.5239 11.4426 70.6755 10.7981 70.9788 10.2521C71.2973 9.70614 71.7296 9.25874 72.2755 8.90992C72.8367 8.5611 73.4812 8.30328 74.2092 8.13646C74.9372 7.95446 75.7182 7.86347 76.5523 7.86347C77.2197 7.86347 77.8566 7.92413 78.4633 8.04546C79.0699 8.16679 79.6083 8.34878 80.0785 8.59144C80.5638 8.83409 80.9429 9.13741 81.2159 9.5014C81.4889 9.86538 81.6254 10.29 81.6254 10.7753C81.6254 10.9725 81.6026 11.1621 81.5571 11.3441C81.5268 11.5109 81.5041 11.6322 81.4889 11.7081H77.9855C78.0007 11.6322 78.0083 11.5716 78.0083 11.5261C78.0235 11.4654 78.031 11.4199 78.031 11.3896C78.031 11.1469 77.9552 10.9498 77.8035 10.7981C77.6671 10.6464 77.4699 10.5327 77.2121 10.4569C76.9542 10.381 76.6433 10.3431 76.2794 10.3431C76.0215 10.3431 75.7713 10.3659 75.5286 10.4114C75.286 10.4569 75.0661 10.5251 74.8689 10.6161C74.6869 10.6919 74.5429 10.7981 74.4367 10.9346C74.3305 11.0559 74.2774 11.2 74.2774 11.3668C74.2774 11.5943 74.376 11.7839 74.5732 11.9355C74.7855 12.072 75.0585 12.1858 75.3921 12.2768C75.741 12.3678 76.105 12.4664 76.4841 12.5725C76.9694 12.6938 77.4775 12.8228 78.0083 12.9593C78.5391 13.0806 79.032 13.255 79.487 13.4825C79.9571 13.71 80.3363 14.0209 80.6244 14.4152C80.9126 14.7943 81.0567 15.2872 81.0567 15.8939C81.0567 16.7432 80.8898 17.456 80.5562 18.0323C80.2377 18.6086 79.7903 19.0712 79.214 19.42C78.6377 19.7688 77.9704 20.019 77.2121 20.1707C76.4689 20.3375 75.6727 20.4209 74.8234 20.4209Z" fill="#1F1D2C"/>
<path d="M35.3742 27.3811C63.889 22.8187 77.0375 26.1137 80.0474 28.3316C56.7604 20.2523 22.0672 40.2128 7.33449 27.8563C-3.48583 18.7812 1.6892 8.74481 6.53243 3.85133C6.92646 3.34872 7.35663 2.9471 7.80982 2.66821C7.39441 3.01871 6.96474 3.41453 6.53243 3.85133C1.55473 10.2007 2.34515 32.6657 35.3742 27.3811Z" fill="#397AF2"/>
<path d="M80.0474 28.3316C77.0375 26.1137 63.889 22.8187 35.3742 27.3811C-0.269389 33.084 1.6316 6.47019 7.80982 2.66821C2.74049 6.94544 -4.45165 17.9712 7.33449 27.8563C22.0672 40.2128 56.7604 20.2523 80.0474 28.3316Z" stroke="#397AF2" stroke-width="0.950495"/>
</svg>
