<svg width="19" height="22" viewBox="0 0 19 22" fill="none" xmlns="http://www.w3.org/2000/svg">
<path d="M9.55002 11.6972C9.19791 11.6985 8.856 11.8155 8.57684 12.0301C8.29769 12.2447 8.09675 12.5451 8.00491 12.885C7.91307 13.2249 7.93541 13.5856 8.06851 13.9116C8.2016 14.2376 8.43808 14.5108 8.74159 14.6893V16.9815H10.3782V14.6893C10.6183 14.5473 10.8176 14.3455 10.9566 14.1037C11.0957 13.8618 11.1698 13.5881 11.1718 13.3091C11.1718 13.0966 11.1298 12.8862 11.0482 12.6899C10.9665 12.4937 10.8469 12.3156 10.6962 12.1658C10.5455 12.016 10.3666 11.8975 10.1699 11.817C9.97319 11.7366 9.76253 11.6959 9.55002 11.6972Z" stroke="#A3ABA8" stroke-width="0.788705" stroke-linecap="round" stroke-linejoin="round"/>
<path d="M15.6084 7.99536H3.48699C2.3109 7.99536 1.35748 8.94877 1.35748 10.1249V18.5492C1.35748 19.7253 2.3109 20.6787 3.48699 20.6787H15.6084C16.7845 20.6787 17.7379 19.7253 17.7379 18.5492V10.1249C17.7379 8.94877 16.7845 7.99536 15.6084 7.99536Z" stroke="#A3ABA8" stroke-width="0.985881" stroke-linecap="round" stroke-linejoin="round"/>
<path d="M4.30011 7.9948V6.70823C4.30011 5.31459 4.85373 3.97802 5.83919 2.99257C6.82465 2.00711 8.16122 1.45349 9.55486 1.45349C10.9485 1.45349 12.2851 2.00711 13.2705 2.99257C14.256 3.97802 14.8096 5.31459 14.8096 6.70823V7.9948" stroke="#A3ABA8" stroke-width="0.985881" stroke-linecap="round" stroke-linejoin="round"/>
</svg>
