<svg width="20" height="17" viewBox="0 0 20 17" fill="none" xmlns="http://www.w3.org/2000/svg">
<path d="M16.0557 0.729187C16.8401 0.729187 17.5924 1.04079 18.147 1.59546C18.7017 2.15012 19.0133 2.90241 19.0133 3.68683V13.1513C19.0133 13.9357 18.7017 14.688 18.147 15.2426C17.5924 15.7973 16.8401 16.1089 16.0557 16.1089H3.042C2.25758 16.1089 1.50529 15.7973 0.950626 15.2426C0.395959 14.688 0.0843506 13.9357 0.0843506 13.1513V3.68683C0.0843506 2.90241 0.395959 2.15012 0.950626 1.59546C1.50529 1.04079 2.25758 0.729187 3.042 0.729187H16.0557ZM17.8302 5.41527L9.84932 10.112C9.77387 10.1563 9.68953 10.1833 9.60238 10.1911C9.51523 10.1989 9.42744 10.1872 9.34534 10.157L9.24833 10.112L1.26741 5.41764V13.1513C1.26741 13.6219 1.45438 14.0733 1.78718 14.4061C2.11998 14.7389 2.57135 14.9259 3.042 14.9259H16.0557C16.5263 14.9259 16.9777 14.7389 17.3105 14.4061C17.6433 14.0733 17.8302 13.6219 17.8302 13.1513V5.41527ZM16.0557 1.91224H3.042C2.57135 1.91224 2.11998 2.09921 1.78718 2.43201C1.45438 2.7648 1.26741 3.21618 1.26741 3.68683V4.04411L9.54883 8.91593L17.8302 4.04174V3.68683C17.8302 3.21618 17.6433 2.7648 17.3105 2.43201C16.9777 2.09921 16.5263 1.91224 16.0557 1.91224Z" fill="#A3ABA8"/>
</svg>
